STARTFONT 2.1
FONT -Adobe-ITC Zapf Dingbats-Medium-R-Normal--11-80-100-100-P-90-ADOBE-FONTSPECIFIC
SIZE 8 100 100
FONTBOUNDINGBOX 11 11 0 -3

STARTPROPERTIES 26
_DEC_DEVICE_FONTNAMES "PS=ZapfDingbats"
FONTNAME_REGISTRY ""
FAMILY_NAME "ITC Zapf Dingbats"
FOUNDRY "Adobe"
WEIGHT_NAME "Medium"
SLANT "R"
SETWIDTH_NAME "Normal"
ADD_STYLE_NAME ""
PIXEL_SIZE 11
POINT_SIZE 80
RESOLUTION_X 100
RESOLUTION_Y 100
SPACING "P"
AVERAGE_WIDTH 90
CHARSET_REGISTRY "ADOBE"
CHARSET_ENCODING "FONTSPECIFIC"
CHARSET_COLLECTIONS "FONTSPECIFIC"
FULL_NAME "ITC Zapf Dingbats"
COPYRIGHT "Copyright (c) 1991 Adobe Systems, Inc."
CAP_HEIGHT 8
X_HEIGHT 6
WEIGHT 10
QUAD_WIDTH 7
DEFAULT_CHAR 0
FONT_DESCENT 3
FONT_ASCENT 8
ENDPROPERTIES

CHARS 188

STARTCHAR space
ENCODING 32
SWIDTH 486 0
DWIDTH 5 0
BBX 1 1 0 0
BITMAP
00
ENDCHAR

STARTCHAR a1
ENCODING 33
SWIDTH 974 0
DWIDTH 11 0
BBX 9 7 1 0
BITMAP
E000
A000
F000
1F00
FF80
AC00
E600
ENDCHAR

STARTCHAR a2
ENCODING 34
SWIDTH 961 0
DWIDTH 11 0
BBX 9 7 1 0
BITMAP
E000
A380
FF00
1C00
FF00
A380
E000
ENDCHAR

STARTCHAR a202
ENCODING 35
SWIDTH 974 0
DWIDTH 11 0
BBX 9 7 1 0
BITMAP
E000
A600
FC00
1800
FF80
A000
E000
ENDCHAR

STARTCHAR a3
ENCODING 36
SWIDTH 980 0
DWIDTH 12 0
BBX 10 7 1 0
BITMAP
F000
9380
FFC0
0C00
FFC0
9380
F000
ENDCHAR

STARTCHAR a4
ENCODING 37
SWIDTH 719 0
DWIDTH 9 0
BBX 7 6 1 0
BITMAP
7C
FE
BA
28
7C
7C
ENDCHAR

STARTCHAR a5
ENCODING 38
SWIDTH 789 0
DWIDTH 10 0
BBX 8 7 1 0
BITMAP
3C
42
8D
9D
B1
B2
1C
ENDCHAR

STARTCHAR a119
ENCODING 39
SWIDTH 790 0
DWIDTH 10 0
BBX 8 8 1 -1
BITMAP
3C
5A
99
99
BD
E7
42
3C
ENDCHAR

STARTCHAR a118
ENCODING 40
SWIDTH 791 0
DWIDTH 9 0
BBX 7 7 1 0
BITMAP
20
30
98
FE
98
30
20
ENDCHAR

STARTCHAR a117
ENCODING 41
SWIDTH 690 0
DWIDTH 9 0
BBX 7 5 1 1
BITMAP
FE
C6
BA
C6
FE
ENDCHAR

STARTCHAR a11
ENCODING 42
SWIDTH 960 0
DWIDTH 11 0
BBX 9 5 1 1
BITMAP
1F80
BC00
BE00
BE00
BC00
ENDCHAR

STARTCHAR a12
ENCODING 43
SWIDTH 939 0
DWIDTH 11 0
BBX 9 5 1 1
BITMAP
1F80
A400
AA00
AA00
BC00
ENDCHAR

STARTCHAR a13
ENCODING 44
SWIDTH 549 0
DWIDTH 7 0
BBX 5 7 1 0
BITMAP
90
50
70
A8
E8
98
60
ENDCHAR

STARTCHAR a14
ENCODING 45
SWIDTH 855 0
DWIDTH 12 0
BBX 10 8 1 0
BITMAP
0100
0200
34C0
4B40
B140
7940
6140
9F40
ENDCHAR

STARTCHAR a15
ENCODING 46
SWIDTH 911 0
DWIDTH 9 0
BBX 7 7 1 0
BITMAP
70
D8
B4
CA
66
36
1E
ENDCHAR

STARTCHAR a16
ENCODING 47
SWIDTH 933 0
DWIDTH 12 0
BBX 10 5 1 1
BITMAP
7F00
C280
BEC0
C280
7F00
ENDCHAR

STARTCHAR a105
ENCODING 48
SWIDTH 667 0
DWIDTH 9 0
BBX 7 7 1 0
BITMAP
1E
36
66
CA
B4
D8
70
ENDCHAR

STARTCHAR a17
ENCODING 49
SWIDTH 945 0
DWIDTH 11 0
BBX 9 7 1 0
BITMAP
0C00
7200
8300
9F80
8300
7200
0C00
ENDCHAR

STARTCHAR a18
ENCODING 50
SWIDTH 974 0
DWIDTH 11 0
BBX 9 7 1 0
BITMAP
0C00
7E00
FF00
F180
FF00
7E00
0C00
ENDCHAR

STARTCHAR a19
ENCODING 51
SWIDTH 755 0
DWIDTH 9 0
BBX 7 7 1 0
BITMAP
06
0E
DC
F8
F8
F0
60
ENDCHAR

STARTCHAR a20
ENCODING 52
SWIDTH 846 0
DWIDTH 10 0
BBX 8 7 1 0
BITMAP
02
07
CE
FC
F8
F0
60
ENDCHAR

STARTCHAR a21
ENCODING 53
SWIDTH 762 0
DWIDTH 9 0
BBX 7 7 1 0
BITMAP
C6
EE
7C
38
7C
EE
C6
ENDCHAR

STARTCHAR a22
ENCODING 54
SWIDTH 761 0
DWIDTH 9 0
BBX 7 7 1 0
BITMAP
6C
FE
FE
7C
FE
FE
6C
ENDCHAR

STARTCHAR a23
ENCODING 55
SWIDTH 571 0
DWIDTH 7 0
BBX 5 7 1 0
BITMAP
D8
D8
70
70
58
D8
C0
ENDCHAR

STARTCHAR a24
ENCODING 56
SWIDTH 677 0
DWIDTH 8 0
BBX 6 7 1 0
BITMAP
6C
7C
38
38
7C
FC
C8
ENDCHAR

STARTCHAR a25
ENCODING 57
SWIDTH 763 0
DWIDTH 9 0
BBX 7 7 1 0
BITMAP
38
28
EE
82
EE
28
38
ENDCHAR

STARTCHAR a26
ENCODING 58
SWIDTH 760 0
DWIDTH 9 0
BBX 7 7 1 0
BITMAP
38
38
FE
FE
FE
38
38
ENDCHAR

STARTCHAR a27
ENCODING 59
SWIDTH 759 0
DWIDTH 10 0
BBX 8 8 1 0
BITMAP
18
18
18
E7
E7
18
18
18
ENDCHAR

STARTCHAR a28
ENCODING 60
SWIDTH 754 0
DWIDTH 9 0
BBX 7 7 1 0
BITMAP
38
38
C6
C6
C6
38
38
ENDCHAR

STARTCHAR a6
ENCODING 61
SWIDTH 494 0
DWIDTH 7 0
BBX 5 7 1 0
BITMAP
20
20
F8
20
20
20
20
ENDCHAR

STARTCHAR a7
ENCODING 62
SWIDTH 552 0
DWIDTH 7 0
BBX 5 7 1 0
BITMAP
70
D8
88
D8
50
50
70
ENDCHAR

STARTCHAR a8
ENCODING 63
SWIDTH 537 0
DWIDTH 8 0
BBX 6 7 1 0
BITMAP
30
30
FC
FC
30
30
30
ENDCHAR

STARTCHAR a9
ENCODING 64
SWIDTH 577 0
DWIDTH 7 0
BBX 5 5 1 1
BITMAP
70
A8
F8
A8
70
ENDCHAR

STARTCHAR a10
ENCODING 65
SWIDTH 692 0
DWIDTH 8 0
BBX 6 5 1 1
BITMAP
30
FC
48
FC
30
ENDCHAR

STARTCHAR a29
ENCODING 66
SWIDTH 786 0
DWIDTH 10 0
BBX 8 7 1 0
BITMAP
18
18
DB
E7
18
18
18
ENDCHAR

STARTCHAR a30
ENCODING 67
SWIDTH 788 0
DWIDTH 9 0
BBX 7 7 1 0
BITMAP
10
38
54
FE
54
38
10
ENDCHAR

STARTCHAR a31
ENCODING 68
SWIDTH 788 0
DWIDTH 9 0
BBX 7 7 1 0
BITMAP
38
38
D6
FE
D6
38
38
ENDCHAR

STARTCHAR a32
ENCODING 69
SWIDTH 790 0
DWIDTH 9 0
BBX 7 8 1 0
BITMAP
10
38
38
D6
FE
D6
38
38
ENDCHAR

STARTCHAR a33
ENCODING 70
SWIDTH 793 0
DWIDTH 9 0
BBX 7 7 1 0
BITMAP
10
38
7C
FE
7C
38
10
ENDCHAR

STARTCHAR a34
ENCODING 71
SWIDTH 794 0
DWIDTH 9 0
BBX 7 7 1 0
BITMAP
10
28
44
82
44
28
10
ENDCHAR

STARTCHAR a35
ENCODING 72
SWIDTH 816 0
DWIDTH 9 0
BBX 7 7 1 0
BITMAP
10
10
FE
7C
38
6C
44
ENDCHAR

STARTCHAR a36
ENCODING 73
SWIDTH 823 0
DWIDTH 9 0
BBX 7 7 1 0
BITMAP
10
10
EE
44
38
6C
44
ENDCHAR

STARTCHAR a37
ENCODING 74
SWIDTH 789 0
DWIDTH 9 0
BBX 7 7 1 0
BITMAP
6C
EE
82
C6
C6
92
7C
ENDCHAR

STARTCHAR a38
ENCODING 75
SWIDTH 841 0
DWIDTH 9 0
BBX 7 7 1 0
BITMAP
10
10
EE
6C
38
6C
44
ENDCHAR

STARTCHAR a39
ENCODING 76
SWIDTH 823 0
DWIDTH 9 0
BBX 7 7 1 0
BITMAP
10
10
EE
54
38
6C
44
ENDCHAR

STARTCHAR a40
ENCODING 77
SWIDTH 833 0
DWIDTH 9 0
BBX 7 7 1 0
BITMAP
10
10
EE
54
28
6C
44
ENDCHAR

STARTCHAR a41
ENCODING 78
SWIDTH 816 0
DWIDTH 9 0
BBX 7 7 1 0
BITMAP
10
10
EE
54
28
6C
44
ENDCHAR

STARTCHAR a42
ENCODING 79
SWIDTH 831 0
DWIDTH 9 0
BBX 7 7 1 0
BITMAP
10
10
EE
54
28
6C
44
ENDCHAR

STARTCHAR a43
ENCODING 80
SWIDTH 923 0
DWIDTH 10 0
BBX 8 7 1 0
BITMAP
18
18
EF
46
3C
6E
46
ENDCHAR

STARTCHAR a44
ENCODING 81
SWIDTH 744 0
DWIDTH 10 0
BBX 8 7 1 0
BITMAP
18
DB
FF
7C
FF
DB
18
ENDCHAR

STARTCHAR a45
ENCODING 82
SWIDTH 723 0
DWIDTH 9 0
BBX 7 7 1 0
BITMAP
10
D6
FE
28
FE
D6
10
ENDCHAR

STARTCHAR a46
ENCODING 83
SWIDTH 749 0
DWIDTH 9 0
BBX 7 7 1 0
BITMAP
10
54
38
FE
38
54
10
ENDCHAR

STARTCHAR a47
ENCODING 84
SWIDTH 790 0
DWIDTH 9 0
BBX 7 7 1 0
BITMAP
10
54
38
FE
38
54
10
ENDCHAR

STARTCHAR a48
ENCODING 85
SWIDTH 792 0
DWIDTH 9 0
BBX 7 7 1 0
BITMAP
10
5C
78
FE
3C
74
10
ENDCHAR

STARTCHAR a49
ENCODING 86
SWIDTH 695 0
DWIDTH 8 0
BBX 6 7 1 0
BITMAP
30
B4
FC
78
FC
B4
30
ENDCHAR

STARTCHAR a50
ENCODING 87
SWIDTH 776 0
DWIDTH 9 0
BBX 7 7 1 0
BITMAP
28
38
FE
7C
FE
38
28
ENDCHAR

STARTCHAR a51
ENCODING 88
SWIDTH 768 0
DWIDTH 9 0
BBX 7 7 1 0
BITMAP
28
38
FE
7C
FE
38
28
ENDCHAR

STARTCHAR a52
ENCODING 89
SWIDTH 792 0
DWIDTH 9 0
BBX 7 7 1 0
BITMAP
54
BA
54
FE
54
BA
54
ENDCHAR

STARTCHAR a53
ENCODING 90
SWIDTH 759 0
DWIDTH 9 0
BBX 7 7 1 0
BITMAP
28
54
AA
54
AA
54
28
ENDCHAR

STARTCHAR a54
ENCODING 91
SWIDTH 700 0
DWIDTH 9 0
BBX 7 7 1 0
BITMAP
10
D6
54
38
54
D6
10
ENDCHAR

STARTCHAR a55
ENCODING 92
SWIDTH 708 0
DWIDTH 7 0
BBX 7 7 0 0
BITMAP
10
D6
FE
28
FE
D6
10
ENDCHAR

STARTCHAR a56
ENCODING 93
SWIDTH 682 0
DWIDTH 9 0
BBX 7 7 1 0
BITMAP
10
D6
FE
38
FE
D6
10
ENDCHAR

STARTCHAR a57
ENCODING 94
SWIDTH 696 0
DWIDTH 9 0
BBX 7 8 1 0
BITMAP
10
38
EE
EE
54
BA
FE
10
ENDCHAR

STARTCHAR a58
ENCODING 95
SWIDTH 813 0
DWIDTH 9 0
BBX 7 7 1 0
BITMAP
38
FE
EE
C6
6C
FE
6C
ENDCHAR

STARTCHAR a59
ENCODING 96
SWIDTH 802 0
DWIDTH 9 0
BBX 7 7 1 0
BITMAP
38
EE
BA
FE
7C
D6
6C
ENDCHAR

STARTCHAR a60
ENCODING 97
SWIDTH 789 0
DWIDTH 9 0
BBX 7 7 1 0
BITMAP
54
FE
FE
6C
FE
FE
54
ENDCHAR

STARTCHAR a61
ENCODING 98
SWIDTH 789 0
DWIDTH 9 0
BBX 7 7 1 0
BITMAP
7C
AA
C6
82
C6
AA
7C
ENDCHAR

STARTCHAR a62
ENCODING 99
SWIDTH 707 0
DWIDTH 9 0
BBX 7 7 1 0
BITMAP
38
EE
BA
7C
BA
EE
38
ENDCHAR

STARTCHAR a63
ENCODING 100
SWIDTH 687 0
DWIDTH 9 0
BBX 7 7 1 0
BITMAP
54
7C
D6
7C
D6
7C
54
ENDCHAR

STARTCHAR a64
ENCODING 101
SWIDTH 696 0
DWIDTH 9 0
BBX 7 7 1 0
BITMAP
54
7C
D6
7C
D6
7C
54
ENDCHAR

STARTCHAR a65
ENCODING 102
SWIDTH 689 0
DWIDTH 9 0
BBX 7 7 1 0
BITMAP
54
7C
D6
7C
D6
7C
54
ENDCHAR

STARTCHAR a66
ENCODING 103
SWIDTH 786 0
DWIDTH 9 0
BBX 7 7 1 0
BITMAP
10
54
38
EE
38
54
10
ENDCHAR

STARTCHAR a67
ENCODING 104
SWIDTH 787 0
DWIDTH 9 0
BBX 7 7 1 0
BITMAP
10
54
38
FE
38
54
10
ENDCHAR

STARTCHAR a68
ENCODING 105
SWIDTH 688 0
DWIDTH 10 0
BBX 8 7 1 0
BITMAP
18
DB
FF
18
FF
DB
18
ENDCHAR

STARTCHAR a69
ENCODING 106
SWIDTH 791 0
DWIDTH 9 0
BBX 7 7 1 0
BITMAP
10
54
38
FE
38
54
10
ENDCHAR

STARTCHAR a70
ENCODING 107
SWIDTH 785 0
DWIDTH 9 0
BBX 7 7 1 0
BITMAP
10
54
38
FE
38
54
10
ENDCHAR

STARTCHAR a71
ENCODING 108
SWIDTH 791 0
DWIDTH 9 0
BBX 7 7 1 0
BITMAP
38
7C
FE
FE
FE
7C
38
ENDCHAR

STARTCHAR a72
ENCODING 109
SWIDTH 873 0
DWIDTH 10 0
BBX 8 7 1 0
BITMAP
3C
46
83
83
83
46
3C
ENDCHAR

STARTCHAR a73
ENCODING 110
SWIDTH 761 0
DWIDTH 9 0
BBX 7 7 1 0
BITMAP
FE
FE
FE
FE
FE
FE
FE
ENDCHAR

STARTCHAR a74
ENCODING 111
SWIDTH 762 0
DWIDTH 9 0
BBX 7 7 1 0
BITMAP
FC
86
86
86
86
FE
7E
ENDCHAR

STARTCHAR a203
ENCODING 112
SWIDTH 762 0
DWIDTH 9 0
BBX 7 7 1 0
BITMAP
7E
FE
86
86
86
86
FC
ENDCHAR

STARTCHAR a75
ENCODING 113
SWIDTH 759 0
DWIDTH 9 0
BBX 7 7 1 0
BITMAP
FE
86
86
86
86
FE
FE
ENDCHAR

STARTCHAR a204
ENCODING 114
SWIDTH 759 0
DWIDTH 9 0
BBX 7 7 1 0
BITMAP
FE
FE
86
86
86
86
FE
ENDCHAR

STARTCHAR a76
ENCODING 115
SWIDTH 892 0
DWIDTH 9 0
BBX 7 7 1 0
BITMAP
10
38
38
7C
7C
FE
FE
ENDCHAR

STARTCHAR a77
ENCODING 116
SWIDTH 892 0
DWIDTH 9 0
BBX 7 7 1 0
BITMAP
FE
FE
7C
7C
38
38
10
ENDCHAR

STARTCHAR a78
ENCODING 117
SWIDTH 788 0
DWIDTH 9 0
BBX 7 7 1 0
BITMAP
10
38
7C
FE
7C
38
10
ENDCHAR

STARTCHAR a79
ENCODING 118
SWIDTH 784 0
DWIDTH 9 0
BBX 7 7 1 0
BITMAP
10
38
54
EE
54
38
10
ENDCHAR

STARTCHAR a81
ENCODING 119
SWIDTH 438 0
DWIDTH 6 0
BBX 4 8 1 -1
BITMAP
C0
E0
F0
F0
F0
E0
C0
00
ENDCHAR

STARTCHAR a82
ENCODING 120
SWIDTH 138 0
DWIDTH 3 0
BBX 1 7 1 0
BITMAP
80
80
80
80
80
80
80
ENDCHAR

STARTCHAR a83
ENCODING 121
SWIDTH 277 0
DWIDTH 4 0
BBX 2 7 1 0
BITMAP
C0
C0
C0
C0
C0
C0
C0
ENDCHAR

STARTCHAR a84
ENCODING 122
SWIDTH 415 0
DWIDTH 5 0
BBX 3 7 1 0
BITMAP
E0
E0
E0
E0
E0
E0
E0
ENDCHAR

STARTCHAR a97
ENCODING 123
SWIDTH 392 0
DWIDTH 5 0
BBX 3 5 1 2
BITMAP
60
80
E0
E0
60
ENDCHAR

STARTCHAR a98
ENCODING 124
SWIDTH 392 0
DWIDTH 5 0
BBX 3 5 1 2
BITMAP
C0
E0
E0
20
C0
ENDCHAR

STARTCHAR a99
ENCODING 125
SWIDTH 668 0
DWIDTH 8 0
BBX 6 5 1 2
BITMAP
6C
90
FC
FC
6C
ENDCHAR

STARTCHAR a100
ENCODING 126
SWIDTH 668 0
DWIDTH 8 0
BBX 6 5 1 2
BITMAP
D8
FC
FC
24
D8
ENDCHAR

STARTCHAR a101
ENCODING 161
SWIDTH 732 0
DWIDTH 8 0
BBX 6 11 1 -3
BITMAP
08
7C
E8
E8
E8
F8
78
08
08
48
70
ENDCHAR

STARTCHAR a102
ENCODING 162
SWIDTH 544 0
DWIDTH 7 0
BBX 5 7 1 0
BITMAP
70
F8
F8
70
20
70
70
ENDCHAR

STARTCHAR a103
ENCODING 163
SWIDTH 544 0
DWIDTH 7 0
BBX 5 7 1 0
BITMAP
D8
F8
F8
70
20
70
70
ENDCHAR

STARTCHAR a104
ENCODING 164
SWIDTH 910 0
DWIDTH 11 0
BBX 9 7 1 0
BITMAP
7700
FF80
FF80
7F00
3E00
1C00
0800
ENDCHAR

STARTCHAR a106
ENCODING 165
SWIDTH 667 0
DWIDTH 8 0
BBX 6 7 1 0
BITMAP
60
F0
F8
7C
F8
F0
60
ENDCHAR

STARTCHAR a107
ENCODING 166
SWIDTH 760 0
DWIDTH 10 0
BBX 8 8 1 0
BITMAP
71
89
36
3E
3E
3C
19
0E
ENDCHAR

STARTCHAR a108
ENCODING 167
SWIDTH 760 0
DWIDTH 10 0
BBX 8 6 1 0
BITMAP
C0
58
5D
BD
BE
38
ENDCHAR

STARTCHAR a112
ENCODING 168
SWIDTH 776 0
DWIDTH 9 0
BBX 7 8 1 0
BITMAP
10
38
38
FE
FE
6C
10
7C
ENDCHAR

STARTCHAR a111
ENCODING 169
SWIDTH 595 0
DWIDTH 7 0
BBX 5 7 1 0
BITMAP
20
70
F8
F8
F8
70
20
ENDCHAR

STARTCHAR a110
ENCODING 170
SWIDTH 694 0
DWIDTH 9 0
BBX 7 7 1 0
BITMAP
6C
FE
FE
7C
38
10
10
ENDCHAR

STARTCHAR a109
ENCODING 171
SWIDTH 626 0
DWIDTH 9 0
BBX 7 8 1 0
BITMAP
10
38
7C
FE
FE
6C
10
7C
ENDCHAR

STARTCHAR a120
ENCODING 172
SWIDTH 788 0
DWIDTH 10 0
BBX 8 8 1 -1
BITMAP
3C
42
99
89
89
89
42
3C
ENDCHAR

STARTCHAR a121
ENCODING 173
SWIDTH 788 0
DWIDTH 10 0
BBX 8 8 1 -1
BITMAP
3C
42
B9
8D
91
BD
42
3C
ENDCHAR

STARTCHAR a122
ENCODING 174
SWIDTH 788 0
DWIDTH 10 0
BBX 8 8 1 -1
BITMAP
3C
42
B9
99
8D
B9
42
3C
ENDCHAR

STARTCHAR a123
ENCODING 175
SWIDTH 788 0
DWIDTH 10 0
BBX 8 8 1 -1
BITMAP
3C
42
A9
A9
BD
89
42
3C
ENDCHAR

STARTCHAR a124
ENCODING 176
SWIDTH 788 0
DWIDTH 10 0
BBX 8 8 1 -1
BITMAP
3C
42
BD
A1
8D
BD
42
3C
ENDCHAR

STARTCHAR a125
ENCODING 177
SWIDTH 788 0
DWIDTH 10 0
BBX 8 8 1 -1
BITMAP
3C
42
9D
A1
BD
9D
42
3C
ENDCHAR

STARTCHAR a126
ENCODING 178
SWIDTH 788 0
DWIDTH 10 0
BBX 8 8 1 -1
BITMAP
3C
42
BD
89
91
91
42
3C
ENDCHAR

STARTCHAR a127
ENCODING 179
SWIDTH 788 0
DWIDTH 10 0
BBX 8 8 1 -1
BITMAP
3C
42
BD
A9
95
9D
42
3C
ENDCHAR

STARTCHAR a128
ENCODING 180
SWIDTH 788 0
DWIDTH 10 0
BBX 8 8 1 -1
BITMAP
3C
42
B9
BD
85
B9
42
3C
ENDCHAR

STARTCHAR a129
ENCODING 181
SWIDTH 788 0
DWIDTH 10 0
BBX 8 8 1 -1
BITMAP
3C
42
AD
AB
AB
AD
42
3C
ENDCHAR

STARTCHAR a130
ENCODING 182
SWIDTH 788 0
DWIDTH 10 0
BBX 8 8 1 -1
BITMAP
3C
66
F7
F7
F7
E3
7E
3C
ENDCHAR

STARTCHAR a131
ENCODING 183
SWIDTH 788 0
DWIDTH 10 0
BBX 8 8 1 -1
BITMAP
3C
66
DB
F3
EF
C3
7E
3C
ENDCHAR

STARTCHAR a132
ENCODING 184
SWIDTH 788 0
DWIDTH 10 0
BBX 8 8 1 -1
BITMAP
3C
46
FB
E3
FB
C3
7E
3C
ENDCHAR

STARTCHAR a133
ENCODING 185
SWIDTH 788 0
DWIDTH 10 0
BBX 8 8 1 -1
BITMAP
3C
76
E7
D7
83
F7
7E
3C
ENDCHAR

STARTCHAR a134
ENCODING 186
SWIDTH 788 0
DWIDTH 10 0
BBX 8 8 1 -1
BITMAP
3C
42
DF
C3
FB
C7
7E
3C
ENDCHAR

STARTCHAR a135
ENCODING 187
SWIDTH 788 0
DWIDTH 10 0
BBX 8 8 1 -1
BITMAP
3C
62
DF
C3
DB
C3
7E
3C
ENDCHAR

STARTCHAR a136
ENCODING 188
SWIDTH 788 0
DWIDTH 10 0
BBX 8 8 1 -1
BITMAP
3C
42
FB
F7
E7
E7
7E
3C
ENDCHAR

STARTCHAR a137
ENCODING 189
SWIDTH 788 0
DWIDTH 10 0
BBX 8 8 1 -1
BITMAP
3C
42
DB
C3
DB
C3
7E
3C
ENDCHAR

STARTCHAR a138
ENCODING 190
SWIDTH 788 0
DWIDTH 10 0
BBX 8 8 1 -1
BITMAP
3C
46
DB
C3
FB
C3
7E
3C
ENDCHAR

STARTCHAR a139
ENCODING 191
SWIDTH 788 0
DWIDTH 10 0
BBX 8 8 1 -1
BITMAP
3C
52
D5
D5
D5
D1
7E
3C
ENDCHAR

STARTCHAR a140
ENCODING 192
SWIDTH 788 0
DWIDTH 10 0
BBX 8 8 1 -1
BITMAP
3C
42
99
89
89
89
42
3C
ENDCHAR

STARTCHAR a141
ENCODING 193
SWIDTH 788 0
DWIDTH 10 0
BBX 8 8 1 -1
BITMAP
3C
42
B9
8D
91
BD
42
3C
ENDCHAR

STARTCHAR a142
ENCODING 194
SWIDTH 788 0
DWIDTH 9 0
BBX 8 8 1 -1
BITMAP
3C
42
B9
99
8D
B9
42
3C
ENDCHAR

STARTCHAR a143
ENCODING 195
SWIDTH 788 0
DWIDTH 10 0
BBX 8 8 1 -1
BITMAP
3C
42
A9
A9
BD
89
42
3C
ENDCHAR

STARTCHAR a144
ENCODING 196
SWIDTH 788 0
DWIDTH 10 0
BBX 8 8 1 -1
BITMAP
3C
42
BD
A1
8D
BD
42
3C
ENDCHAR

STARTCHAR a145
ENCODING 197
SWIDTH 788 0
DWIDTH 10 0
BBX 8 8 1 -1
BITMAP
3C
42
9D
A1
BD
9D
42
3C
ENDCHAR

STARTCHAR a146
ENCODING 198
SWIDTH 788 0
DWIDTH 10 0
BBX 8 8 1 -1
BITMAP
3C
42
BD
89
91
91
42
3C
ENDCHAR

STARTCHAR a147
ENCODING 199
SWIDTH 788 0
DWIDTH 10 0
BBX 8 8 1 -1
BITMAP
3C
42
BD
A9
95
9D
42
3C
ENDCHAR

STARTCHAR a148
ENCODING 200
SWIDTH 788 0
DWIDTH 10 0
BBX 8 8 1 -1
BITMAP
3C
42
B9
BD
85
B9
42
3C
ENDCHAR

STARTCHAR a149
ENCODING 201
SWIDTH 788 0
DWIDTH 10 0
BBX 8 8 1 -1
BITMAP
3C
42
AD
AB
AB
AD
42
3C
ENDCHAR

STARTCHAR a150
ENCODING 202
SWIDTH 788 0
DWIDTH 10 0
BBX 8 8 1 -1
BITMAP
3C
66
F7
F7
F7
F7
7E
3C
ENDCHAR

STARTCHAR a151
ENCODING 203
SWIDTH 788 0
DWIDTH 10 0
BBX 8 8 1 -1
BITMAP
3C
66
DB
F3
EF
C3
7E
3C
ENDCHAR

STARTCHAR a152
ENCODING 204
SWIDTH 788 0
DWIDTH 10 0
BBX 8 8 1 -1
BITMAP
3C
46
FB
E3
FB
C3
7E
3C
ENDCHAR

STARTCHAR a153
ENCODING 205
SWIDTH 788 0
DWIDTH 10 0
BBX 8 8 1 -1
BITMAP
3C
76
E7
D7
83
F7
7E
3C
ENDCHAR

STARTCHAR a154
ENCODING 206
SWIDTH 788 0
DWIDTH 10 0
BBX 8 8 1 -1
BITMAP
3C
42
DF
C3
FB
C7
7E
3C
ENDCHAR

STARTCHAR a155
ENCODING 207
SWIDTH 788 0
DWIDTH 10 0
BBX 8 8 1 -1
BITMAP
3C
62
DF
C3
DB
C3
7E
3C
ENDCHAR

STARTCHAR a156
ENCODING 208
SWIDTH 788 0
DWIDTH 10 0
BBX 8 8 1 -1
BITMAP
3C
42
FB
F7
E7
E7
7E
3C
ENDCHAR

STARTCHAR a157
ENCODING 209
SWIDTH 788 0
DWIDTH 10 0
BBX 8 8 1 -1
BITMAP
3C
42
DB
C3
DB
C3
7E
3C
ENDCHAR

STARTCHAR a158
ENCODING 210
SWIDTH 788 0
DWIDTH 10 0
BBX 8 8 1 -1
BITMAP
3C
46
DB
C3
FB
C3
7E
3C
ENDCHAR

STARTCHAR a159
ENCODING 211
SWIDTH 788 0
DWIDTH 10 0
BBX 8 8 1 -1
BITMAP
3C
52
D5
D5
D5
D1
7E
3C
ENDCHAR

STARTCHAR a160
ENCODING 212
SWIDTH 894 0
DWIDTH 9 0
BBX 8 6 0 0
BITMAP
1C
0E
FF
FF
0E
1C
ENDCHAR

STARTCHAR a161
ENCODING 213
SWIDTH 838 0
DWIDTH 9 0
BBX 7 5 1 1
BITMAP
08
04
FE
04
08
ENDCHAR

STARTCHAR a163
ENCODING 214
SWIDTH 1016 0
DWIDTH 11 0
BBX 9 5 1 1
BITMAP
2200
4100
FF80
4100
2200
ENDCHAR

STARTCHAR a164
ENCODING 215
SWIDTH 458 0
DWIDTH 7 0
BBX 5 9 1 -1
BITMAP
20
70
A8
20
20
20
A8
70
20
ENDCHAR

STARTCHAR a196
ENCODING 216
SWIDTH 733 0
DWIDTH 9 0
BBX 7 6 1 0
BITMAP
C0
60
32
1E
0E
1E
ENDCHAR

STARTCHAR a165
ENCODING 217
SWIDTH 924 0
DWIDTH 10 0
BBX 8 7 1 0
BITMAP
08
0C
EE
FF
EE
0C
08
ENDCHAR

STARTCHAR a192
ENCODING 218
SWIDTH 927 0
DWIDTH 9 0
BBX 7 6 1 0
BITMAP
1E
0E
1E
32
60
C0
ENDCHAR

STARTCHAR a166
ENCODING 219
SWIDTH 918 0
DWIDTH 10 0
BBX 8 5 1 1
BITMAP
30
1C
FF
1C
30
ENDCHAR

STARTCHAR a167
ENCODING 220
SWIDTH 927 0
DWIDTH 11 0
BBX 9 8 1 -1
BITMAP
0C00
0E00
0700
FF80
FF80
0700
0E00
0C00
ENDCHAR

STARTCHAR a168
ENCODING 221
SWIDTH 928 0
DWIDTH 10 0
BBX 8 5 1 1
BITMAP
04
06
FF
06
04
ENDCHAR

STARTCHAR a169
ENCODING 222
SWIDTH 928 0
DWIDTH 11 0
BBX 9 6 1 1
BITMAP
0200
0300
FF80
FF80
0300
0200
ENDCHAR

STARTCHAR a170
ENCODING 223
SWIDTH 834 0
DWIDTH 11 0
BBX 9 6 1 1
BITMAP
0200
0300
AF80
AF80
0300
0200
ENDCHAR

STARTCHAR a171
ENCODING 224
SWIDTH 803 0
DWIDTH 10 0
BBX 8 5 1 1
BITMAP
04
BE
BF
BE
04
ENDCHAR

STARTCHAR a172
ENCODING 225
SWIDTH 828 0
DWIDTH 10 0
BBX 8 5 1 1
BITMAP
04
FE
FF
FE
04
ENDCHAR

STARTCHAR a173
ENCODING 226
SWIDTH 862 0
DWIDTH 11 0
BBX 9 7 1 0
BITMAP
C000
7800
2600
1F80
3E00
7800
C000
ENDCHAR

STARTCHAR a162
ENCODING 227
SWIDTH 838 0
DWIDTH 11 0
BBX 9 7 1 0
BITMAP
C000
7800
7E00
1F80
2600
7800
C000
ENDCHAR

STARTCHAR a174
ENCODING 228
SWIDTH 847 0
DWIDTH 11 0
BBX 9 7 1 0
BITMAP
C000
7800
3E00
1F80
3E00
7800
C000
ENDCHAR

STARTCHAR a175
ENCODING 229
SWIDTH 930 0
DWIDTH 11 0
BBX 9 6 1 1
BITMAP
8000
8200
FF00
FF80
7F00
0200
ENDCHAR

STARTCHAR a176
ENCODING 230
SWIDTH 861 0
DWIDTH 11 0
BBX 9 6 1 0
BITMAP
0200
7F00
FF80
FF00
8200
8000
ENDCHAR

STARTCHAR a177
ENCODING 231
SWIDTH 463 0
DWIDTH 7 0
BBX 5 8 1 0
BITMAP
40
60
F0
F8
F8
F0
60
40
ENDCHAR

STARTCHAR a178
ENCODING 232
SWIDTH 883 0
DWIDTH 11 0
BBX 9 5 1 1
BITMAP
0400
FE00
FF80
FE00
0400
ENDCHAR

STARTCHAR a179
ENCODING 233
SWIDTH 836 0
DWIDTH 10 0
BBX 8 7 1 0
BITMAP
18
1C
F6
83
F6
1C
18
ENDCHAR

STARTCHAR a193
ENCODING 234
SWIDTH 836 0
DWIDTH 10 0
BBX 8 7 1 0
BITMAP
18
1C
FA
C1
FA
1C
18
ENDCHAR

STARTCHAR a180
ENCODING 235
SWIDTH 797 0
DWIDTH 11 0
BBX 9 7 1 0
BITMAP
0200
3F00
4180
8080
FB00
FE00
0400
ENDCHAR

STARTCHAR a199
ENCODING 236
SWIDTH 797 0
DWIDTH 11 0
BBX 9 7 1 0
BITMAP
0400
FE00
FB00
8080
4180
3F00
0200
ENDCHAR

STARTCHAR a181
ENCODING 237
SWIDTH 626 0
DWIDTH 8 0
BBX 6 7 1 0
BITMAP
20
F0
98
8C
9C
F8
30
ENDCHAR

STARTCHAR a200
ENCODING 238
SWIDTH 626 0
DWIDTH 8 0
BBX 6 7 1 0
BITMAP
30
F8
9C
8C
98
F0
20
ENDCHAR

STARTCHAR a182
ENCODING 239
SWIDTH 874 0
DWIDTH 11 0
BBX 9 7 1 0
BITMAP
0400
FE00
4300
2180
7F00
FE00
0400
ENDCHAR

STARTCHAR a201
ENCODING 241
SWIDTH 874 0
DWIDTH 11 0
BBX 9 7 1 0
BITMAP
0400
FE00
7F00
2380
4300
FE00
0400
ENDCHAR

STARTCHAR a183
ENCODING 242
SWIDTH 760 0
DWIDTH 9 0
BBX 7 7 1 0
BITMAP
7C
EE
06
02
06
EE
7C
ENDCHAR

STARTCHAR a184
ENCODING 243
SWIDTH 946 0
DWIDTH 11 0
BBX 10 5 0 1
BITMAP
A900
5580
3FC0
5580
A900
ENDCHAR

STARTCHAR a197
ENCODING 244
SWIDTH 771 0
DWIDTH 9 0
BBX 7 7 1 0
BITMAP
20
30
D8
68
3A
06
0E
ENDCHAR

STARTCHAR a185
ENCODING 245
SWIDTH 865 0
DWIDTH 11 0
BBX 9 5 1 1
BITMAP
E200
F300
0F80
F300
E200
ENDCHAR

STARTCHAR a194
ENCODING 246
SWIDTH 883 0
DWIDTH 9 0
BBX 7 7 1 0
BITMAP
0E
06
3A
68
D8
30
20
ENDCHAR

STARTCHAR a198
ENCODING 247
SWIDTH 888 0
DWIDTH 9 0
BBX 7 7 1 0
BITMAP
30
30
F0
F2
0E
0E
1E
ENDCHAR

STARTCHAR a186
ENCODING 248
SWIDTH 967 0
DWIDTH 10 0
BBX 8 5 1 1
BITMAP
E4
F6
7F
F6
E4
ENDCHAR

STARTCHAR a195
ENCODING 249
SWIDTH 872 0
DWIDTH 9 0
BBX 7 7 1 0
BITMAP
1E
0E
0E
F2
F0
30
30
ENDCHAR

STARTCHAR a187
ENCODING 250
SWIDTH 831 0
DWIDTH 10 0
BBX 8 6 1 0
BITMAP
0C
06
FF
FF
06
0C
ENDCHAR

STARTCHAR a188
ENCODING 251
SWIDTH 873 0
DWIDTH 10 0
BBX 8 5 1 1
BITMAP
64
F6
FF
F6
64
ENDCHAR

STARTCHAR a189
ENCODING 252
SWIDTH 927 0
DWIDTH 11 0
BBX 9 5 1 1
BITMAP
E200
F300
7F80
F300
E200
ENDCHAR

STARTCHAR a190
ENCODING 253
SWIDTH 970 0
DWIDTH 11 0
BBX 9 5 1 1
BITMAP
F200
FB00
7F80
FB00
F200
ENDCHAR

STARTCHAR a191
ENCODING 254
SWIDTH 918 0
DWIDTH 11 0
BBX 9 7 1 0
BITMAP
1400
0A00
FD00
0080
FD00
0A00
1400
ENDCHAR
ENDFONT
